<?xml version="1.0" standalone="no"?>
<!DOCTYPE svg PUBLIC "-//W3C//DTD SVG 20010904//EN"
 "http://www.w3.org/TR/2001/REC-SVG-20010904/DTD/svg10.dtd">
<svg version="1.0" xmlns="http://www.w3.org/2000/svg"
 width="480.000000pt" height="480.000000pt" viewBox="0 0 480.000000 480.000000"
 preserveAspectRatio="xMidYMid meet">
<metadata>
Created by potrace 1.14, written by Peter Selinger 2001-2017
</metadata>
<g transform="translate(0.000000,480.000000) scale(0.100000,-0.100000)"
fill="#000000" stroke="none">
<path d="M1069 4796 c-2 -2 -24 -7 -49 -10 -25 -3 -60 -10 -77 -15 -18 -5 -33
-8 -33 -6 0 9 -177 -58 -245 -92 -119 -59 -206 -123 -310 -228 -145 -144 -231
-283 -295 -473 -61 -182 -59 -138 -57 -1607 3 -1337 3 -1340 25 -1428 119
-484 493 -836 977 -921 114 -20 2673 -21 2780 -1 39 7 84 16 102 19 50 10 171
55 248 93 119 59 206 123 311 228 182 181 279 365 340 645 12 51 15 2694 4
2760 -5 30 -12 70 -15 89 -9 56 -64 211 -100 284 -59 118 -126 209 -230 312
-144 144 -284 232 -471 294 -183 61 -143 60 -1585 60 -724 1 -1318 -1 -1320
-3z"/>
</g>
</svg>
