<svg width="76" height="25" viewBox="0 0 76 25" fill="none" xmlns="http://www.w3.org/2000/svg">
<path d="M12.5 23.4375C18.5406 23.4375 23.4375 18.5406 23.4375 12.5C23.4375 6.45939 18.5406 1.5625 12.5 1.5625C6.45939 1.5625 1.5625 6.45939 1.5625 12.5C1.5625 18.5406 6.45939 23.4375 12.5 23.4375Z" fill="#1485BD"/>
<path fill-rule="evenodd" clip-rule="evenodd" d="M18.6406 11.3281H17.7813C17.7031 11.3281 17.5469 11.0313 17.1563 10.6094C16.5781 9.98438 15.9375 9.1875 15.4844 8.75C14.3601 7.77424 13.4412 6.58446 12.7813 5.25C12.4063 4.45313 12.375 4.09375 11.6094 4.09375C11.307 4.13279 11.0307 4.28519 10.8364 4.52013C10.6421 4.75507 10.5442 5.05503 10.5625 5.35938C10.5625 5.57813 10.6719 6.34375 10.7188 6.60938C11.0534 7.83103 11.5809 8.99145 12.2813 10.0469H13.125H6.43752C6.24811 10.0441 6.0602 10.0809 5.88586 10.155C5.71151 10.2291 5.55457 10.3388 5.42511 10.4771C5.29564 10.6154 5.19651 10.7792 5.13407 10.958C5.07163 11.1369 5.04726 11.3268 5.06252 11.5156C5.08661 11.8817 5.25126 12.2243 5.52207 12.4718C5.79288 12.7193 6.14888 12.8526 6.51565 12.8438H6.76565C6.60558 12.8478 6.44789 12.8834 6.30157 12.9484C6.15525 13.0134 6.02318 13.1066 5.9129 13.2227C5.80262 13.3388 5.71629 13.4755 5.65885 13.6249C5.60142 13.7744 5.57399 13.9337 5.57815 14.0938C5.58086 14.4086 5.70083 14.7111 5.91463 14.9423C6.12844 15.1734 6.42072 15.3166 6.7344 15.3437C6.54346 15.4898 6.3987 15.6879 6.31746 15.9141C6.23622 16.1404 6.22196 16.3853 6.27638 16.6195C6.3308 16.8537 6.45159 17.0672 6.62428 17.2344C6.79697 17.4017 7.01423 17.5156 7.25002 17.5625C7.10031 17.8224 7.05032 18.1278 7.1094 18.4219C7.18941 18.7105 7.36355 18.9641 7.60418 19.1425C7.8448 19.3208 8.13811 19.4137 8.43752 19.4063H12.0156C12.4844 19.4063 12.9516 19.3469 13.4063 19.2344L15.625 18.5781H18.5938C20.1875 18.5156 20.6094 11.3281 18.6406 11.3281V11.3281Z" fill="#E6F7FF"/>
<path d="M11.6094 10.0469H6.42191C6.22442 10.045 6.02886 10.0857 5.84852 10.1663C5.66818 10.2468 5.5073 10.3652 5.37683 10.5135C5.24636 10.6617 5.14935 10.8363 5.09242 11.0255C5.03549 11.2146 5.01997 11.4137 5.04691 11.6094C5.07483 11.9727 5.24114 12.3114 5.51154 12.5556C5.78194 12.7999 6.13578 12.931 6.50003 12.9219H6.75004C6.58997 12.9259 6.43227 12.9615 6.28595 13.0265C6.13963 13.0915 6.00756 13.1847 5.89728 13.3008C5.787 13.4169 5.70068 13.5536 5.64324 13.703C5.5858 13.8525 5.55838 14.0118 5.56253 14.1719C5.56828 14.4874 5.68888 14.79 5.90173 15.023C6.11458 15.256 6.40507 15.4033 6.71879 15.4375C6.56936 15.5547 6.44824 15.7041 6.36439 15.8745C6.28054 16.0449 6.23612 16.232 6.23441 16.4219C6.23519 16.715 6.33644 16.9989 6.52126 17.2264C6.70608 17.4539 6.96331 17.6111 7.25003 17.6719C7.09924 17.9371 7.0493 18.2478 7.10941 18.5469C7.19232 18.8326 7.3677 19.0827 7.60805 19.258C7.84841 19.4334 8.14015 19.524 8.43754 19.5156H12.0157C12.4844 19.5156 12.9516 19.4563 13.4063 19.3438L15.625 18.6094H18.5938C20.1563 18.6094 20.5782 11.3594 18.5938 11.3594C18.3075 11.3751 18.0207 11.3751 17.7344 11.3594C17.6563 11.3594 17.5 11.0625 17.1094 10.6406C16.5313 10.0156 15.8907 9.21875 15.4375 8.78125C14.3284 7.79649 13.4256 6.60157 12.7813 5.26563C12.6572 4.9708 12.4886 4.69677 12.2813 4.45313C12.021 4.23428 11.6853 4.12639 11.3463 4.15269C11.0073 4.17899 10.6921 4.33738 10.4688 4.59375C10.3069 4.76888 10.1749 4.96948 10.0782 5.1875C10.0149 5.33838 9.96781 5.49549 9.93754 5.65625C9.89561 6.09677 9.93265 6.54124 10.0469 6.96875C10.1469 7.41875 10.2891 7.85781 10.4688 8.28125C10.7625 8.83281 11.1094 9.35625 11.5 9.84375C11.5482 9.87346 11.5864 9.91702 11.6094 9.96875" stroke="#004B7C" stroke-linecap="round" stroke-linejoin="round"/>
<mask id="mask0_882_463" style="mask-type:alpha" maskUnits="userSpaceOnUse" x="18" y="1" width="23" height="23">
<path d="M40.4375 12.5C40.4375 6.45939 35.5406 1.5625 29.5 1.5625C23.4594 1.5625 18.5625 6.45939 18.5625 12.5C18.5625 18.5406 23.4594 23.4375 29.5 23.4375C35.5406 23.4375 40.4375 18.5406 40.4375 12.5Z" fill="white"/>
</mask>
<g mask="url(#mask0_882_463)">
<path d="M40.4375 12.5C40.4375 6.45939 35.5406 1.5625 29.5 1.5625C23.4594 1.5625 18.5625 6.45939 18.5625 12.5C18.5625 18.5406 23.4594 23.4375 29.5 23.4375C35.5406 23.4375 40.4375 18.5406 40.4375 12.5Z" fill="#D8D8D8"/>
<path d="M29.5 23.4375C35.5406 23.4375 40.4375 18.5406 40.4375 12.5C40.4375 6.45939 35.5406 1.5625 29.5 1.5625C23.4594 1.5625 18.5625 6.45939 18.5625 12.5C18.5625 18.5406 23.4594 23.4375 29.5 23.4375Z" fill="#6DAE4F"/>
<path d="M29.5 1.5625C32.4008 1.5625 35.1828 2.71484 37.234 4.76602C39.2852 6.8172 40.4375 9.59919 40.4375 12.5C40.4375 15.4008 39.2852 18.1828 37.234 20.234C35.1828 22.2852 32.4008 23.4375 29.5 23.4375C26.5992 23.4375 23.8172 22.2852 21.766 20.234C19.7148 18.1828 18.5625 15.4008 18.5625 12.5C18.5625 9.59919 19.7148 6.8172 21.766 4.76602C23.8172 2.71484 26.5992 1.5625 29.5 1.5625V1.5625ZM29.5 0C26.1848 0 23.0054 1.31696 20.6612 3.66117C18.317 6.00537 17 9.18479 17 12.5C17 15.8152 18.317 18.9946 20.6612 21.3388C23.0054 23.683 26.1848 25 29.5 25C32.8152 25 35.9946 23.683 38.3388 21.3388C40.683 18.9946 42 15.8152 42 12.5C42 9.18479 40.683 6.00537 38.3388 3.66117C35.9946 1.31696 32.8152 0 29.5 0V0Z" fill="white"/>
<path d="M35.9577 14.4125C35.9293 13.1848 35.7402 11.9661 35.3952 10.7875C34.4495 10.0273 33.7306 9.02203 33.3171 7.88125C33.0671 7.05312 32.8952 6.75625 32.1609 6.74062C32.0114 6.75421 31.8662 6.79758 31.7337 6.86815C31.6013 6.93873 31.4843 7.0351 31.3896 7.15158C31.295 7.26807 31.2246 7.40231 31.1826 7.5464C31.1407 7.6905 31.128 7.84154 31.1452 7.99062C31.1546 8.36562 31.1859 8.74219 31.239 9.11562C31.4531 10.1391 31.7546 11.1437 32.1452 12.1156L25.114 6.77187C24.9967 6.65763 24.8568 6.56922 24.7032 6.51237C24.5497 6.45551 24.386 6.43146 24.2225 6.44176C24.0591 6.45207 23.8997 6.4965 23.7545 6.5722C23.6093 6.64789 23.4816 6.75317 23.3796 6.88125C23.3021 7.01086 23.2514 7.15476 23.2307 7.30436C23.21 7.45397 23.2196 7.60622 23.259 7.75203C23.2983 7.89784 23.3667 8.03424 23.4599 8.15308C23.5531 8.27192 23.6693 8.37077 23.8015 8.44375L27.3171 11.1L28.239 11.975L22.6609 7.74062C22.5491 7.62786 22.4143 7.54041 22.2658 7.4842C22.1173 7.42799 21.9584 7.40432 21.8 7.4148C21.6415 7.42527 21.4871 7.46964 21.3473 7.54491C21.2075 7.62018 21.0854 7.72459 20.9894 7.85109C20.8934 7.97759 20.8257 8.12323 20.7908 8.27816C20.756 8.43308 20.7548 8.59369 20.7873 8.74913C20.8198 8.90456 20.8854 9.0512 20.9795 9.17912C21.0736 9.30704 21.1941 9.41327 21.3327 9.49062L24.8484 12.1469L26.9577 13.7094L22.3952 10.2875C22.278 10.1733 22.138 10.0848 21.9845 10.028C21.831 9.97113 21.6672 9.94708 21.5038 9.95739C21.3404 9.96769 21.181 10.0121 21.0358 10.0878C20.8906 10.1635 20.7629 10.2688 20.6609 10.3969C20.1765 11.0219 20.5671 11.6625 21.0671 12.0531L24.5827 14.6937L26.3484 16.0219L22.8327 13.3656C22.7244 13.2477 22.5928 13.1536 22.4462 13.0892C22.2997 13.0248 22.1413 12.9915 21.9812 12.9915C21.8211 12.9915 21.6627 13.0248 21.5161 13.0892C21.3695 13.1536 21.2379 13.2477 21.1296 13.3656C21.0337 13.4993 20.967 13.6516 20.9339 13.8127C20.9007 13.9739 20.9019 14.1402 20.9373 14.3008C20.9726 14.4615 21.0414 14.6129 21.1392 14.7452C21.2369 14.8775 21.3615 14.9877 21.5046 15.0687L27.9109 19.7562C28.839 20.4547 31.1452 21.0578 32.1609 20.175" stroke="#165209" stroke-width="1.5" stroke-linecap="round" stroke-linejoin="round"/>
<path fill-rule="evenodd" clip-rule="evenodd" d="M36.7078 15.475L36.0516 14.8969C35.9662 13.7469 35.6972 12.618 35.2547 11.5531C34.3399 10.48 33.6921 9.20573 33.3641 7.83436C33.1141 7.00623 32.9422 6.70936 32.2078 6.69373C32.0583 6.70732 31.9131 6.75069 31.7806 6.82126C31.6482 6.89184 31.5312 6.98821 31.4366 7.10469C31.3419 7.22118 31.2715 7.35542 31.2296 7.49951C31.1876 7.64361 31.1749 7.79465 31.1922 7.94373C31.2016 8.31873 31.2328 8.69529 31.2859 9.06873C31.4656 10.0547 31.7547 11.0187 32.1453 11.9437L31.8484 11.7719L25.1141 6.59998C24.9968 6.48574 24.8568 6.39733 24.7033 6.34048C24.5498 6.28362 24.386 6.25957 24.2226 6.26987C24.0592 6.28018 23.8998 6.32461 23.7546 6.40031C23.6094 6.476 23.4817 6.58128 23.3797 6.70936C23.2888 6.84296 23.2273 6.99436 23.1993 7.15351C23.1713 7.31267 23.1775 7.47595 23.2174 7.63255C23.2573 7.78915 23.33 7.93548 23.4307 8.06186C23.5314 8.18824 23.6578 8.29177 23.8016 8.36561L27.2391 11.0062L28.2391 11.8031L22.6609 7.56873C22.5447 7.45358 22.4056 7.36406 22.2527 7.30591C22.0998 7.24776 21.9363 7.22228 21.773 7.23111C21.6096 7.23994 21.4499 7.28289 21.3041 7.35718C21.1583 7.43148 21.0297 7.53548 20.9266 7.66248C20.8375 7.79586 20.7771 7.94632 20.7494 8.10428C20.7216 8.26224 20.727 8.42425 20.7652 8.58002C20.8034 8.73578 20.8736 8.8819 20.9713 9.00907C21.069 9.13625 21.1921 9.2417 21.3328 9.31873L24.8484 11.975L26.9578 13.5375L22.3953 10.1312C22.2803 10.0138 22.1416 9.92227 21.9884 9.8627C21.8352 9.80313 21.671 9.77691 21.5069 9.78578C21.3428 9.79465 21.1824 9.83841 21.0366 9.91415C20.8907 9.98988 20.7626 10.0959 20.6609 10.225C20.5694 10.3576 20.5071 10.5081 20.478 10.6666C20.4489 10.825 20.4537 10.9879 20.4921 11.1443C20.5304 11.3008 20.6015 11.4474 20.7007 11.5744C20.7998 11.7014 20.9247 11.806 21.0672 11.8812L24.5828 14.5219L26.3484 15.85L22.8328 13.2094C22.7272 13.087 22.5965 12.9889 22.4495 12.9216C22.3026 12.8543 22.1429 12.8195 21.9812 12.8195C21.8196 12.8195 21.6599 12.8543 21.513 12.9216C21.366 12.9889 21.2353 13.087 21.1297 13.2094C21.034 13.3417 20.9675 13.4929 20.9345 13.6528C20.9015 13.8128 20.9028 13.9779 20.9382 14.1373C20.9736 14.2968 21.0424 14.4469 21.1401 14.5778C21.2377 14.7087 21.362 14.8174 21.5047 14.8969L27.9109 19.7562C28.3705 20.1021 28.8956 20.351 29.4542 20.488C30.0128 20.625 30.5935 20.6471 31.1609 20.5531C32.0016 21.0406 32.7359 21.0406 33.3641 20.5531C34.3047 19.8203 33.9953 19.7547 34.6922 18.7875C35.4809 17.7588 36.1566 16.6482 36.7078 15.475V15.475Z" fill="#DCF0CB"/>
<path d="M35.9577 14.4125C35.9293 13.1848 35.7402 11.9661 35.3952 10.7875C34.4495 10.0273 33.7306 9.02203 33.3171 7.88125C33.0671 7.05312 32.8952 6.75625 32.1609 6.74062C32.0114 6.75421 31.8662 6.79758 31.7337 6.86815C31.6013 6.93873 31.4843 7.0351 31.3896 7.15158C31.295 7.26807 31.2246 7.40231 31.1826 7.5464C31.1407 7.6905 31.128 7.84154 31.1452 7.99062C31.1546 8.36562 31.1859 8.74219 31.239 9.11562C31.4531 10.1391 31.7546 11.1437 32.1452 12.1156L25.114 6.77187C24.9967 6.65763 24.8568 6.56922 24.7032 6.51237C24.5497 6.45551 24.386 6.43146 24.2225 6.44176C24.0591 6.45207 23.8997 6.4965 23.7545 6.5722C23.6093 6.64789 23.4816 6.75317 23.3796 6.88125C23.3021 7.01086 23.2514 7.15476 23.2307 7.30436C23.21 7.45397 23.2196 7.60622 23.259 7.75203C23.2983 7.89784 23.3667 8.03424 23.4599 8.15308C23.5531 8.27192 23.6693 8.37077 23.8015 8.44375L27.3171 11.1L28.239 11.975L22.6609 7.74062C22.5491 7.62786 22.4143 7.54041 22.2658 7.4842C22.1173 7.42799 21.9584 7.40432 21.8 7.4148C21.6415 7.42527 21.4871 7.46964 21.3473 7.54491C21.2075 7.62018 21.0854 7.72459 20.9894 7.85109C20.8934 7.97759 20.8257 8.12323 20.7908 8.27816C20.756 8.43308 20.7548 8.59369 20.7873 8.74913C20.8198 8.90456 20.8854 9.0512 20.9795 9.17912C21.0736 9.30704 21.1941 9.41327 21.3327 9.49062L24.8484 12.1469L26.9577 13.7094L22.3952 10.2875C22.278 10.1733 22.138 10.0848 21.9845 10.028C21.831 9.97113 21.6672 9.94708 21.5038 9.95739C21.3404 9.96769 21.181 10.0121 21.0358 10.0878C20.8906 10.1635 20.7629 10.2688 20.6609 10.3969C20.1765 11.0219 20.5671 11.6625 21.0671 12.0531L24.5827 14.6937L26.3484 16.0219L22.8327 13.3656C22.7244 13.2477 22.5928 13.1536 22.4462 13.0892C22.2997 13.0248 22.1413 12.9915 21.9812 12.9915C21.8211 12.9915 21.6627 13.0248 21.5161 13.0892C21.3695 13.1536 21.2379 13.2477 21.1296 13.3656C21.0337 13.4993 20.967 13.6516 20.9339 13.8127C20.9007 13.9739 20.9019 14.1402 20.9373 14.3008C20.9726 14.4615 21.0414 14.6129 21.1392 14.7452C21.2369 14.8775 21.3615 14.9877 21.5046 15.0687L27.9109 19.7562C28.839 20.4547 31.014 20.9156 32.1609 20.725" stroke="#165209" stroke-width="0.5" stroke-linecap="round" stroke-linejoin="round"/>
<path fill-rule="evenodd" clip-rule="evenodd" d="M40.0735 17.7937C39.7575 17.4555 39.513 17.0569 39.3548 16.6219C39.3548 16.2781 39.261 15.95 39.1985 15.6062C39.1497 15.0066 38.9567 14.4277 38.636 13.9187C37.7304 12.8396 37.0837 11.5676 36.7454 10.2C36.4954 9.37186 36.3235 9.07499 35.5891 9.05936C35.4397 9.07295 35.2944 9.11632 35.162 9.18689C35.0295 9.25747 34.9125 9.35384 34.8179 9.47032C34.7232 9.5868 34.6529 9.72105 34.6109 9.86514C34.5689 10.0092 34.5562 10.1603 34.5735 10.3094C34.5844 10.6844 34.6157 11.0594 34.6673 11.4344C34.9485 12.8719 35.2454 14.0594 35.2766 14.1375L28.5735 9.12186C28.4574 9.00533 28.3178 8.9149 28.164 8.85663C28.0102 8.79835 27.8457 8.77356 27.6816 8.78391C27.5174 8.79426 27.3573 8.83952 27.2121 8.91666C27.0668 8.9938 26.9397 9.10104 26.8391 9.23124C26.761 9.35991 26.7094 9.50296 26.6876 9.65191C26.6657 9.80086 26.6739 9.95269 26.7118 10.0984C26.7497 10.2441 26.8165 10.3807 26.9081 10.5002C26.9998 10.6196 27.1144 10.7194 27.2454 10.7937L30.761 13.45L31.8235 14.325L26.1985 10.0906C26.0835 9.97319 25.9448 9.88165 25.7916 9.82208C25.6384 9.76251 25.4742 9.73629 25.3101 9.74516C25.146 9.75403 24.9856 9.79779 24.8398 9.87353C24.6939 9.94926 24.5658 10.0552 24.4641 10.1844C24.3726 10.317 24.3103 10.4675 24.2812 10.626C24.2521 10.7844 24.2569 10.9473 24.2953 11.1037C24.3336 11.2602 24.4047 11.4068 24.5039 11.5338C24.603 11.6608 24.7279 11.7654 24.8704 11.8406L28.386 14.4969L30.4954 16.0594L25.9173 12.6375C25.8003 12.5245 25.6608 12.4374 25.5079 12.382C25.355 12.3265 25.1921 12.304 25.0299 12.3158C24.8677 12.3276 24.7098 12.3735 24.5666 12.4504C24.4233 12.5274 24.2979 12.6337 24.1985 12.7625C23.7141 13.3875 24.0891 14.0281 24.6048 14.4187L28.1204 17.0437L29.8704 18.3719L26.2923 15.7156C26.0729 15.525 25.789 15.4253 25.4986 15.437C25.2082 15.4486 24.9332 15.5706 24.7298 15.7781C24.6341 15.9061 24.566 16.0526 24.5298 16.2083C24.4937 16.364 24.4901 16.5255 24.5195 16.6826C24.5489 16.8397 24.6105 16.989 24.7005 17.1211C24.7904 17.2531 24.9068 17.3651 25.0423 17.45L31.2923 22.1375C31.8141 22.5281 32.4173 22.7953 33.0579 22.9187L33.9641 23.0594C34.4407 23.1297 34.9016 23.2828 35.3235 23.5125C35.6152 23.6549 35.9497 23.6828 36.261 23.5906C37.3599 23.2031 38.3213 22.5024 39.0266 21.575C39.6873 20.6618 40.0673 19.5758 40.1204 18.45C40.16 18.2308 40.1439 18.0051 40.0735 17.7937Z" stroke="#165209" stroke-width="1.5" stroke-linecap="round" stroke-linejoin="round"/>
<path fill-rule="evenodd" clip-rule="evenodd" d="M40.1359 17.7156L39.4328 17.1844C39.3549 16.0333 39.0856 14.9032 38.6359 13.8406C37.7274 12.7634 37.0804 11.4906 36.7453 10.1219C36.4953 9.29377 36.3234 8.99689 35.589 8.98127C35.4395 8.99486 35.2943 9.03822 35.1619 9.1088C35.0294 9.17938 34.9124 9.27575 34.8178 9.39223C34.7231 9.50871 34.6527 9.64295 34.6108 9.78705C34.5688 9.93115 34.5561 10.0822 34.5734 10.2313C34.5843 10.6063 34.6156 10.9813 34.6671 11.3563C34.9484 12.8094 35.2453 13.9969 35.2765 14.0594L28.5734 9.04377C28.4561 8.92952 28.3162 8.84112 28.1626 8.78426C28.0091 8.7274 27.8453 8.70335 27.6819 8.71366C27.5185 8.72396 27.3591 8.7684 27.2139 8.84409C27.0687 8.91979 26.941 9.02507 26.839 9.15314C26.3546 9.79377 26.7453 10.4188 27.2453 10.8094L30.7609 13.45L31.8234 14.325L26.1984 10.0125C26.0811 9.89827 25.9412 9.80987 25.7876 9.75301C25.6341 9.69615 25.4703 9.6721 25.3069 9.68241C25.1435 9.69271 24.9841 9.73715 24.8389 9.81284C24.6937 9.88854 24.566 9.99382 24.464 10.1219C23.9796 10.7469 24.3703 11.3875 24.8703 11.7781L28.3859 14.4188L30.4953 15.9813L25.9171 12.5594C25.8012 12.4455 25.6626 12.3573 25.5103 12.3006C25.358 12.2439 25.1955 12.2199 25.0333 12.2302C24.8712 12.2405 24.713 12.2849 24.5691 12.3605C24.4252 12.4361 24.2989 12.5411 24.1984 12.6688C24.1044 12.8006 24.0399 12.9511 24.0094 13.1101C23.9789 13.2691 23.9831 13.4328 24.0216 13.5901C24.0602 13.7473 24.1323 13.8944 24.2329 14.0212C24.3335 14.148 24.4603 14.2517 24.6046 14.325L28.1203 16.9656L29.8703 18.2938L26.2921 15.6531C26.0762 15.4551 25.7907 15.3506 25.498 15.3623C25.2053 15.374 24.9291 15.501 24.7296 15.7156C24.6205 15.844 24.5412 15.995 24.4973 16.1577C24.4535 16.3204 24.4463 16.4908 24.4761 16.6567C24.506 16.8225 24.5723 16.9797 24.6701 17.1168C24.768 17.254 24.895 17.3678 25.0421 17.45L31.2921 22.1375C32.2397 22.7026 33.3145 23.0197 34.4171 23.0594C34.8172 23.3039 35.235 23.518 35.6671 23.7C36.9207 23.4637 38.0377 22.76 38.7921 21.7313C39.6157 20.5492 40.0821 19.1553 40.1359 17.7156V17.7156Z" fill="#DDF6D1"/>
<path fill-rule="evenodd" clip-rule="evenodd" d="M40.0735 17.7937C39.7575 17.4555 39.513 17.0569 39.3548 16.6219C39.3548 16.2781 39.261 15.95 39.1985 15.6062C39.1497 15.0066 38.9567 14.4277 38.636 13.9187C37.7304 12.8396 37.0837 11.5676 36.7454 10.2C36.4954 9.37186 36.3235 9.07499 35.5891 9.05936C35.4397 9.07295 35.2944 9.11632 35.162 9.18689C35.0295 9.25747 34.9125 9.35384 34.8179 9.47032C34.7232 9.5868 34.6529 9.72105 34.6109 9.86514C34.5689 10.0092 34.5562 10.1603 34.5735 10.3094C34.5844 10.6844 34.6157 11.0594 34.6673 11.4344C34.9485 12.8719 35.2454 14.0594 35.2766 14.1375L28.5735 9.12186C28.4574 9.00533 28.3178 8.9149 28.164 8.85663C28.0102 8.79835 27.8457 8.77356 27.6816 8.78391C27.5174 8.79426 27.3573 8.83952 27.2121 8.91666C27.0668 8.9938 26.9397 9.10104 26.8391 9.23124C26.761 9.35991 26.7094 9.50296 26.6876 9.65191C26.6657 9.80086 26.6739 9.95269 26.7118 10.0984C26.7497 10.2441 26.8165 10.3807 26.9081 10.5002C26.9998 10.6196 27.1144 10.7194 27.2454 10.7937L30.761 13.45L31.8235 14.325L26.1985 10.0906C26.0835 9.97319 25.9448 9.88165 25.7916 9.82208C25.6384 9.76251 25.4742 9.73629 25.3101 9.74516C25.146 9.75403 24.9856 9.79779 24.8398 9.87353C24.6939 9.94926 24.5658 10.0552 24.4641 10.1844C24.3726 10.317 24.3103 10.4675 24.2812 10.626C24.2521 10.7844 24.2569 10.9473 24.2953 11.1037C24.3336 11.2602 24.4047 11.4068 24.5039 11.5338C24.603 11.6608 24.7279 11.7654 24.8704 11.8406L28.386 14.4969L30.4954 16.0594L25.9173 12.6375C25.8003 12.5245 25.6608 12.4374 25.5079 12.382C25.355 12.3265 25.1921 12.304 25.0299 12.3158C24.8677 12.3276 24.7098 12.3735 24.5666 12.4504C24.4233 12.5274 24.2979 12.6337 24.1985 12.7625C23.7141 13.3875 24.0891 14.0281 24.6048 14.4187L28.1204 17.0437L29.8704 18.3719L26.2923 15.7156C26.0729 15.525 25.789 15.4253 25.4986 15.437C25.2082 15.4486 24.9332 15.5706 24.7298 15.7781C24.6341 15.9061 24.566 16.0526 24.5298 16.2083C24.4937 16.364 24.4901 16.5255 24.5195 16.6826C24.5489 16.8397 24.6105 16.989 24.7005 17.1211C24.7904 17.2531 24.9068 17.3651 25.0423 17.45L31.2923 22.1375C31.8141 22.5281 32.4173 22.7953 33.0579 22.9187L33.9641 23.0594C34.4407 23.1297 34.9016 23.2828 35.3235 23.5125C35.6152 23.6549 35.9497 23.6828 36.261 23.5906C37.3599 23.2031 38.3213 22.5024 39.0266 21.575C39.6873 20.6618 40.0673 19.5758 40.1204 18.45C40.16 18.2308 40.1439 18.0051 40.0735 17.7937Z" stroke="#165209" stroke-width="0.5" stroke-linecap="round" stroke-linejoin="round"/>
<path d="M28.7781 2.55156L27.764 4.98906M30.7953 4.40312L29.6547 5.84062L30.7953 4.40312ZM25.5844 2.53906L25.6859 4.40312L25.5844 2.53906Z" stroke="#165209" stroke-linecap="round" stroke-linejoin="round"/>
</g>
<path d="M44.9377 23.4377C47.8386 23.4377 50.6206 22.2853 52.6718 20.2341C54.723 18.1829 55.8754 15.4009 55.8754 12.5C55.8754 9.59914 54.723 6.8171 52.6718 4.76588C50.6206 2.71466 47.8386 1.5623 44.9377 1.5623C42.0368 1.5623 39.2548 2.71466 37.2036 4.76588C35.1524 6.8171 34 9.59914 34 12.5C34 15.4009 35.1524 18.1829 37.2036 20.2341C39.2548 22.2853 42.0368 23.4377 44.9377 23.4377V23.4377Z" fill="#D8D8D8"/>
<path d="M44.9377 23.4377C47.8386 23.4377 50.6206 22.2853 52.6718 20.2341C54.723 18.1829 55.8754 15.4009 55.8754 12.5C55.8754 9.59914 54.723 6.8171 52.6718 4.76588C50.6206 2.71466 47.8386 1.5623 44.9377 1.5623C42.0368 1.5623 39.2548 2.71466 37.2036 4.76588C35.1524 6.8171 34 9.59914 34 12.5C34 15.4009 35.1524 18.1829 37.2036 20.2341C39.2548 22.2853 42.0368 23.4377 44.9377 23.4377V23.4377Z" fill="#BBA9D1"/>
<path d="M42.6642 16.5891H42.4564C42.4185 16.5944 42.3801 16.5944 42.3423 16.5891C41.9892 16.4579 40.1907 15.7719 38.9844 15.4344C38.9105 15.4135 38.8443 15.3712 38.7943 15.3128C38.7443 15.2544 38.7126 15.1826 38.7032 15.1063C38.6551 14.833 38.7151 14.5518 38.8704 14.3219C38.9301 14.2403 39.0086 14.1742 39.0991 14.1291C39.1896 14.084 39.2896 14.0612 39.3907 14.0625C39.4938 14.0625 39.5985 14.0782 39.6969 14.1141C39.936 14.2078 40.1595 14.3391 40.3563 14.5047L40.4454 14.5672L41.0017 14.9579C41.2095 15.1016 41.3923 15.2266 41.5204 15.3251L42.8204 15.8454C42.997 15.9235 43.7298 16.2563 43.6892 16.4391C43.647 16.6204 42.8611 16.6048 42.6861 16.6094L42.6642 16.5891V16.5891Z" fill="#FEF2FF"/>
<path d="M56.6145 21.9845C54.7508 21.9492 52.8921 21.7774 51.0535 21.4705H50.9488C49.5588 21.291 48.1816 21.0238 46.8253 20.6704C45.6253 20.3329 44.4409 19.8923 43.294 19.4704L42.7846 19.286C41.8549 18.9484 40.9299 18.5984 40.0095 18.236L39.708 18.1173C39.2256 17.9404 38.7548 17.7332 38.2986 17.4969C37.6689 17.1532 37.4767 16.7126 37.7517 16.1907V16.1485C37.8389 15.9872 37.9716 15.8551 38.1333 15.7687C38.295 15.6823 38.4785 15.6454 38.6611 15.6625H38.7314C38.8236 15.6563 38.9142 15.6563 39.0064 15.6625C40.0049 15.7641 42.894 16.7907 43.4643 16.9954L45.3284 17.0579H45.3721L49.5894 17.1891C49.2613 16.9126 48.4331 16.4204 46.4143 15.9344C46.03 15.8407 45.68 15.7391 45.5971 15.4782C45.536 15.2775 45.5384 15.0628 45.6042 14.8636C45.6699 14.6644 45.7957 14.4905 45.9643 14.3656C46.23 14.2188 46.5394 14.1516 46.8472 14.175C47.4072 14.1752 47.9632 14.2686 48.4925 14.4516C48.9316 14.5922 49.3863 14.686 49.8472 14.7328C50.6004 14.836 51.3457 14.9907 52.0738 15.2016C54.4254 15.7907 54.8801 16.8922 55.177 17.5594C55.0833 17.2876 55.177 17.4876 55.2208 17.3844L55.2864 17.2969H55.4458C55.5134 17.3021 55.5813 17.3021 55.6489 17.2969C56.0551 17.2969 56.8208 17.261 56.8333 17.261C57.0255 17.261 57.9302 17.0516 57.9302 17.2204C58.0129 18.8255 57.6506 20.4223 56.8833 21.8345C56.8596 21.8748 56.827 21.9091 56.788 21.9348C56.749 21.9606 56.7046 21.977 56.6583 21.983H56.6145V21.9845Z" fill="#EAE2F3"/>
<path d="M53.0691 15.6094C53.0912 15.6222 53.1162 15.6289 53.1417 15.6289C53.1673 15.6289 53.1923 15.6222 53.2144 15.6094H53.0691Z" fill="#D67676"/>
<path fill-rule="evenodd" clip-rule="evenodd" d="M42.0345 5.58426C41.6182 5.15688 41.0492 4.91234 40.4526 4.90443C39.856 4.89652 39.2807 5.12588 38.8532 5.54208L38.8173 5.58426C38.3902 6.02203 38.1511 6.60941 38.1511 7.22101C38.1511 7.83262 38.3902 8.41999 38.8173 8.85776L42.2814 12.3719L45.7534 8.85307C46.1802 8.4161 46.4191 7.8295 46.4191 7.21867C46.4191 6.60784 46.1802 6.02124 45.7534 5.58426C45.5454 5.36862 45.2963 5.19698 45.0207 5.07956C44.7451 4.96214 44.4487 4.90133 44.1492 4.90075C43.8496 4.90016 43.553 4.95982 43.277 5.07617C43.0009 5.19252 42.7511 5.36318 42.5424 5.57801L42.2877 5.83896L42.033 5.58426H42.0345Z" fill="#ECAA96"/>
<path d="M58.8801 17.5751C59.0613 17.7001 59.0691 18.986 58.6769 20.1173C58.2863 21.2486 56.9894 22.5752 56.78 22.7549C56.5722 22.9346 49.1971 21.9392 47.4674 21.6673C45.7377 21.3955 37.6547 17.6235 37.3313 17.4516C37.0062 17.2798 36.9766 16.0485 37.9047 15.7938C38.8313 15.5375 42.3579 17.0532 43.8486 17.1735C45.3392 17.2954 47.8127 17.4516 49.5768 17.4516C51.3409 17.4516 47.5393 16.3844 46.9267 16.1704C46.3127 15.9516 45.3095 15.6797 45.2345 15.1672C45.1611 14.6547 45.9173 14.1313 46.4205 13.9985C46.9236 13.8656 47.633 14.1328 49.5768 14.5532C51.5206 14.9735 51.8393 14.7328 53.4019 15.336C54.9644 15.9391 55.7019 16.8485 55.8753 17.1735C56.0472 17.5001 58.6988 17.4516 58.8801 17.5751V17.5751Z" stroke="#493D57"/>
<path d="M38.8017 15.7688C38.447 14.8094 38.9767 14.2 39.6079 14.075C40.2376 13.9516 41.4486 14.7266 42.2908 15.5079C42.9689 16.1344 43.5205 16.4798 45.258 17.2579" stroke="#493D57"/>
<path d="M42.1642 5.26549C41.6993 4.81552 41.0763 4.56603 40.4294 4.57071C39.7824 4.57539 39.1631 4.83385 38.7048 5.29049C38.2462 5.74751 37.9851 6.3661 37.9775 7.01348C37.9699 7.66086 38.2164 8.28541 38.6641 8.75306L42.4376 12.5L46.2127 8.74837C46.5544 8.40226 46.7862 7.96295 46.8791 7.48557C46.972 7.00819 46.9219 6.514 46.7349 6.06502C46.548 5.61604 46.2326 5.23227 45.8284 4.96188C45.4241 4.69149 44.949 4.54652 44.4627 4.54517C43.8095 4.54829 43.1845 4.8108 42.7251 5.27643L42.4376 5.54675L42.1642 5.26549V5.26549Z" stroke="#77280C" stroke-linecap="round" stroke-linejoin="round"/>
<path d="M63.5 23.4375C69.5406 23.4375 74.4375 18.5406 74.4375 12.5C74.4375 6.45939 69.5406 1.5625 63.5 1.5625C57.4594 1.5625 52.5625 6.45939 52.5625 12.5C52.5625 18.5406 57.4594 23.4375 63.5 23.4375Z" fill="#DF704D"/>
<path fill-rule="evenodd" clip-rule="evenodd" d="M63.0469 7.8125C62.6666 7.43124 62.2148 7.12876 61.7175 6.92237C61.2201 6.71598 60.6869 6.60974 60.1484 6.60974C59.6099 6.60974 59.0767 6.71598 58.5794 6.92237C58.082 7.12876 57.6303 7.43124 57.25 7.8125C56.8649 8.19706 56.5595 8.65375 56.3511 9.15645C56.1427 9.65915 56.0354 10.198 56.0354 10.7422C56.0354 11.2864 56.1427 11.8252 56.3511 12.3279C56.5595 12.8306 56.8649 13.2873 57.25 13.6719L63.5 19.9219L69.75 13.6719C70.135 13.2873 70.4405 12.8306 70.6489 12.3279C70.8573 11.8252 70.9646 11.2864 70.9646 10.7422C70.9646 10.198 70.8573 9.65915 70.6489 9.15645C70.4405 8.65375 70.135 8.19706 69.75 7.8125C69.3722 7.43001 68.922 7.12663 68.4257 6.92006C67.9294 6.71349 67.3969 6.60787 66.8594 6.60937C66.3215 6.60611 65.7885 6.71093 65.292 6.9176C64.7954 7.12427 64.3454 7.42859 63.9687 7.8125L63.5 8.28125L63.0469 7.8125Z" fill="#FFF3F0" stroke="#77280C"/>
<path fill-rule="evenodd" clip-rule="evenodd" d="M63.0468 7.8125C62.6687 7.42747 62.2176 7.12164 61.72 6.91287C61.2223 6.7041 60.6881 6.59657 60.1484 6.59657C59.6087 6.59657 59.0745 6.7041 58.5768 6.91287C58.0792 7.12164 57.6281 7.42747 57.25 7.8125C56.496 8.58579 56.074 9.62309 56.074 10.7031C56.074 11.7832 56.496 12.8205 57.25 13.5937L63.5 19.8437L69.75 13.5937C70.504 12.8205 70.926 11.7832 70.926 10.7031C70.926 9.62309 70.504 8.58579 69.75 7.8125C69.373 7.4279 68.9233 7.12208 68.427 6.91286C67.9308 6.70363 67.3979 6.59516 66.8593 6.59375C66.3205 6.59341 65.7871 6.70108 65.2906 6.91041C64.7941 7.11975 64.3446 7.42648 63.9687 7.8125L63.5 8.20313L63.0468 7.8125Z" stroke="#77280C" stroke-linecap="round" stroke-linejoin="round"/>
</svg>
